<svg xmlns="http://www.w3.org/2000/svg" id="Layer_1" data-name="Layer 1" viewBox="-15 0 220 48"><defs><style>.cls-1{fill:#3a3a3a}</style></defs><path d="m148.82 4.27-8.58 14.14-8.58-14.14h-3.2l.01 23.57h4.54L133 14.73l5.66 9.28h3.16l5.65-9.28v13.11h4.55V4.27h-3.2zM5.24 23.93h4.55c5.12 0 7.77-3.01 7.77-8.13 0-4.7-2.67-7.58-7.64-7.63H5.24v15.76ZM.3 4.32h10.31c7.81 0 12.18 5.08 12.18 11.35 0 7.53-5.46 12.15-12.28 12.15H.3V4.32ZM30.87 18.5c0 2.95 1.72 5.59 4.96 5.59s4.9-2.55 4.9-5.52-1.59-5.66-4.96-5.66-4.91 2.59-4.91 5.59m14.89 0c0 5.29-3.58 9.35-10.1 9.35s-9.77-4.44-9.77-9.34 3.51-9.34 9.98-9.34 9.88 4.84 9.88 9.33M66.47 21.51c.2 0 .35.19.3.38-.89 3.15-3.73 5.95-9.08 5.95-6.66 0-9.67-4.28-9.67-9.35s3.42-9.34 9.69-9.34 8.55 3.87 9 6.05c.04.19-.11.36-.3.36h-3.84c-.39 0-.75-.22-.93-.57-.54-1.05-1.63-2.13-3.92-2.13-3.16 0-4.73 2.35-4.73 5.57s1.49 5.65 4.72 5.65c2.21 0 3.41-.86 4.19-2.41.05-.1.16-.17.27-.17h4.3ZM86.44 18.5c0 2.95 1.72 5.59 4.96 5.59s4.9-2.55 4.9-5.52-1.59-5.66-4.96-5.66-4.91 2.59-4.91 5.59m14.89 0c0 5.29-3.58 9.35-10.09 9.35s-9.77-4.44-9.77-9.34 3.51-9.34 9.98-9.34 9.88 4.84 9.88 9.33M81.22 26.03a8.22 8.22 0 0 1-1.95-2.66c-.01-.03-.04-.05-.06-.05-.03 0-.06 0-.08.01-.21.12-.4.23-.61.33-.38.18-.39.18-.98.27-.63.1-1.2-.15-1.59-.69-.35-.48-.49-2.01-.49-2.73v-6.3c0-.17.14-.31.31-.31h3.82s.07-.02.09-.05l.02-.03s.02-.03.02-.05v-3.53c0-.06-.04-.1-.1-.1h-3.84c-.17 0-.31-.14-.31-.32V4.65a.1.1 0 0 0-.1-.1h-4.24s-.05 0-.07.03c-.02.02-.03.05-.03.07v5.18c0 .17-.14.31-.32.31h-2.18a.1.1 0 0 0-.1.1v3.56c0 .06.04.1.1.1h2.19c.17 0 .31.14.31.32v6.02c0 1.35.14 2.75.42 4.27.25 1.34 1.02 2.24 2.42 2.84.78.33 1.76.5 2.92.5 1.64 0 2.85-.45 4.46-1.65.02-.02.04-.05.04-.08s-.01-.06-.03-.08M107.35 9.25c.88 0 1.09.2 1.09 1.04v1.49c1.23-2.27 3.11-3.02 5.53-2.99 0 1.49.02 2.91-.02 4.32 0 .16-.31.39-.51.45-.4.12-.84.12-1.26.21-2.14.48-3.71 2-3.74 4.19-.04 2.91 0 9.49 0 9.89h-4.63s.04-11.91 0-17.52c0-.84.26-1.07 1.11-1.07h2.42ZM88.29 30.41c-.81-.28-1.35-.55-1.88-.86-.31-.18-.55-.35-.78-.53-5.24 6.42-13.2 10.08-21.72 10.08s-16.48-3.66-21.72-10.08c-.23.18-.47.35-.78.53-.53.31-1.06.58-1.88.86-.43.15-.93.27-1.15.31 6.01 7.71 15.52 12.41 25.53 12.41s19.51-4.7 25.53-12.41c-.22-.04-.73-.17-1.15-.31M107.53 38.55c.34-.22.65-.63.65-1.25 0-.77-.51-1.59-1.96-1.59h-2.41v6.06h2.47c1.24 0 2.07-.74 2.07-1.83 0-.7-.39-1.15-.83-1.39Zm-2.62-.45v-1.43h1.27c.55 0 .88.27.88.71 0 .34-.11.73-.98.73h-1.17Zm2.31 1.83c0 .73-.58.88-1.06.88h-1.25v-1.76h1.13c.79 0 1.18.29 1.18.88ZM112.53 35.88c-.45.8-1.11 1.96-1.43 2.57-.23-.44-.61-1.13-.98-1.81-.17-.31-.33-.61-.47-.87l-.04-.07h-1.28l2.15 3.73s.02.05.02.09v2.24h1.12v-2.24c0-.05 0-.07.02-.09l2.21-3.73h-1.22l-.1.17ZM159.49 36.59c.75 0 1.22.32 1.42.98l.03.09h1.1l-.02-.15c-.18-1.15-1.16-1.89-2.52-1.89-1.74 0-2.86 1.25-2.86 3.18s1.06 3.05 2.7 3.05c.73 0 1.29-.21 1.67-.61.02.21.04.35.07.44l.03.09h.87v-3.41h-2.66v.99h1.56c-.02 1.05-.47 1.53-1.43 1.53-1.54 0-1.66-1.62-1.66-2.12 0-.81.22-2.17 1.69-2.17ZM167.44 40.59v-.34c0-.74-.22-1.23-.65-1.48.48-.26.76-.75.76-1.37 0-1.03-.77-1.69-1.97-1.69h-2.45v6.06h1.11v-2.51h.98c.96 0 1.12.3 1.12 1.02v.11c0 .58 0 1.04.11 1.31l.03.08h1.1l-.06-.17c-.08-.21-.08-.65-.08-1.01Zm-1.03-3.12c0 .4-.13.82-1.08.82h-1.09v-1.61h1.17c.67 0 1.01.27 1.01.79ZM171.08 35.62c-1.72 0-2.88 1.25-2.88 3.12s1.13 3.11 2.81 3.11c1.99 0 2.88-1.58 2.88-3.14 0-1.85-1.13-3.08-2.81-3.08Zm1.65 3.1c0 .5-.12 2.15-1.69 2.15-1.24 0-1.69-1.16-1.69-2.15 0-1.32.63-2.11 1.69-2.11 1.24 0 1.69 1.1 1.69 2.12ZM178.53 39.32c0 1.07-.4 1.55-1.3 1.55s-1.31-.52-1.31-1.55V35.7h-1.12v3.62c0 1.62.86 2.52 2.42 2.52s2.43-.86 2.43-2.57V35.7h-1.11v3.62ZM183.24 35.71h-2.37v6.06h1.11v-2.34h1.21c1.29 0 2.1-.72 2.1-1.88s-.81-1.84-2.06-1.84Zm-1.25.97h1.18c.3 0 1 .09 1 .88 0 .59-.35.89-1.03.89h-1.15v-1.78ZM152.23 35.84h1.12v1h-1.12zM119.93 39.3l-2.1-3.46h-.78v5.79h1.11V38.4l1.39 2.28h.77l1.39-2.28v3.23h1.11v-5.79h-.78l-2.11 3.46zM132.17 39.39h1.48v.89c-.33.26-.76.45-1.29.45-1.11 0-1.97-.86-1.97-1.98s.82-1.98 1.92-1.98c.57 0 1.06.25 1.4.59l.72-.76c-.52-.5-1.25-.82-2.11-.82-1.8 0-3.04 1.31-3.04 2.97s1.26 2.97 3.06 2.97c1.06 0 1.91-.45 2.43-1.11V38.4h-2.6v.99ZM125.61 35.84l-2.13 5.79h1.16l.58-1.57h2.26l.57 1.57h1.16l-2.13-5.79h-1.48Zm-.05 3.22.79-2.07.79 2.07h-1.58ZM150.6 38.38c.19-.2.37-.59.37-.97 0-.47-.21-.88-.54-1.17-.28-.25-.64-.41-1.29-.41h-1.96v5.79h2.25c.74 0 1.19-.2 1.51-.52.32-.31.53-.76.53-1.25 0-.65-.35-1.22-.87-1.48Zm-2.31-1.55h.78c.35 0 .5.08.62.21.1.11.17.26.17.41s-.07.31-.17.41c-.12.12-.27.21-.62.21h-.78v-1.24Zm1.86 3.55c-.14.16-.35.26-.74.26h-1.11v-1.57h1.11c.39 0 .6.1.74.26.13.14.21.32.21.53s-.07.39-.21.53ZM152.23 37.62h1.12v4h-1.12zM138.49 39.35c.44-.07.75-.24.99-.48.32-.31.53-.77.53-1.26s-.21-.94-.53-1.26c-.32-.32-.77-.52-1.51-.52h-2.25v5.79h1.11v-2.23h.41l1.64 2.23h1.31l-1.68-2.27Zm-1.7-.97v-1.54h1.12c.39 0 .6.1.74.25.13.14.21.32.21.52s-.07.38-.21.52c-.14.15-.36.25-.74.25h-1.12ZM117.05 42.46h5.77v.84h-5.77zM142.89 35.84l-2.13 5.79h1.16l.58-1.57h2.25l.58 1.57h1.16l-2.13-5.79h-1.48Zm-.02 3.22.76-2.08.76 2.08h-1.52Z" class="cls-1"/></svg>